<svg width="56" height="56" xmlns="http://www.w3.org/2000/svg"><g transform="translate(5 5)" fill="none" fill-rule="evenodd"><rect stroke="#2088FF" stroke-width="2" stroke-linecap="round" stroke-linejoin="round" width="24" height="14" rx="2"/><path d="M4 18v22a2 2 0 002 2h8M9 19h15M12 24h19M12 29h19M28 9h3M28 14h9M9 34h8M42 30V6a2 2 0 00-2-2H28" stroke="#79B8FF" stroke-width="2" stroke-linecap="round" stroke-linejoin="round"/><path stroke="#2088FF" stroke-width="2" stroke-linecap="round" stroke-linejoin="round" d="M38 38h-4M42 42h-6"/><path d="M37.866 34H44a2 2 0 012 2v8a2 2 0 01-2 2h-5.309m1.765 0H36m-5-12h8.448" stroke="#2088FF" stroke-width="2" stroke-linecap="round"/><path stroke="#2088FF" stroke-width="2" stroke-linecap="round" stroke-linejoin="round" d="M16 5h2M16 9h4"/><path d="M7.852 7c0 .519-.082.975-.247 1.37a2.65 2.65 0 01-.673.97l.832 1.046H6.616l-.468-.576a2.879 2.879 0 01-1.02.179c-.517 0-.981-.118-1.392-.353a2.506 2.506 0 01-.975-1.02C2.523 8.168 2.403 7.63 2.403 7c0-.634.12-1.174.358-1.62.239-.444.564-.784.975-1.018a2.76 2.76 0 011.392-.35c.515 0 .978.116 1.389.35.411.234.736.574.976 1.019.24.445.36.985.36 1.619zm-3.15.886h1.045l.432.554c.134-.16.24-.361.314-.602.075-.24.112-.52.112-.838 0-.617-.134-1.089-.403-1.413-.27-.325-.627-.488-1.074-.488-.447 0-.805.163-1.074.488-.269.324-.403.796-.403 1.413 0 .616.134 1.086.403 1.412.269.326.627.489 1.074.489.112 0 .218-.01.318-.032l-.744-.983zM9.182 10V4h1.23v4.986h2.494V10H9.18z" fill="#2088FF" fill-rule="nonzero"/><path d="M23.345 34.903l-5.29 7.993A2 2 0 0019.721 46h10.563a2 2 0 001.67-3.102l-5.273-7.992a2 2 0 00-3.337-.003z" stroke="#2088FF" stroke-width="2" stroke-linejoin="round"/><path stroke="#2088FF" stroke-width="2" stroke-linecap="round" stroke-linejoin="round" d="M24.993 40v-2"/><path d="M25 42a1 1 0 110 2 1 1 0 010-2z" fill="#2088FF"/></g></svg>